<svg width="25" height="25" viewBox="0 0 25 25" fill="none" xmlns="http://www.w3.org/2000/svg">
<g id="Male">
<path id="Vector" d="M16.0558 8.06128V8.24122V9.99855C16.0558 11.9538 14.4724 13.5372 12.5172 13.5372H12.4332C10.478 13.5372 8.89453 11.9538 8.89453 9.99855V8.26523" stroke="black" stroke-width="0.697674" stroke-miterlimit="10" stroke-linecap="round" stroke-linejoin="round"/>
<path id="Vector_2" d="M14.3356 14.1549H14.9954C17.5084 14.1549 19.5416 16.1881 19.5416 18.7012V20.5245C19.5416 21.0103 19.1458 21.4122 18.654 21.4122H17.4004H17.4124H17.4064C15.1873 21.5861 15.0373 22.3838 13.9518 22.3838C13.9458 22.3838 13.9398 22.3838 13.9337 22.3838H10.9229C9.83733 22.3838 9.69338 21.5861 7.46821 21.4122H6.34664C5.85483 21.4122 5.45898 21.0163 5.45898 20.5245V18.7012C5.45898 16.1881 7.49222 14.1549 10.0052 14.1549H10.527V12.9854V14.1249C10.527 15.1326 11.3487 15.9542 12.3563 15.9542H12.5003C13.5079 15.9542 14.3296 15.1326 14.3296 14.1249V13.0394L14.3356 14.1549Z" stroke="black" stroke-width="0.697674" stroke-miterlimit="10" stroke-linecap="round" stroke-linejoin="round"/>
<path id="Vector_3" d="M16.0566 8.24104C16.0566 8.24104 16.2065 5.94993 13.8614 4.72639C13.8614 4.72639 13.1477 7.38336 8.66738 8.31301C8.66738 8.31301 7.13198 3.79674 9.05128 2.69916C9.26715 2.57921 9.62105 2.5912 9.82494 2.72315C10.1188 2.90908 10.4127 3.21497 10.5927 3.3709C10.7306 3.49086 10.9105 3.55683 11.0965 3.54484C11.3484 3.53285 11.7023 3.46087 12.0501 3.27495C13.5742 2.64781 16.4025 2.69916 16.4584 5.08625C16.4944 6.62168 16.6024 7.89319 16.0566 8.24104Z" stroke="#C5C5C5" stroke-width="0.697674" stroke-miterlimit="10" stroke-linecap="round" stroke-linejoin="round"/>
<path id="Vector_4" d="M14.3887 19.013C14.3887 18.4253 14.4486 17.9514 14.5206 17.9514H14.5326C14.5626 17.9514 14.6705 18.0294 14.8805 18.2453C15.2583 17.8794 15.6302 17.8794 16.008 18.2453C16.218 18.0294 16.3259 17.9514 16.3559 17.9514H16.3679C16.4399 17.9514 16.4998 18.4253 16.4998 19.013V18.9471V19.079C16.4998 19.5948 16.08 20.0147 15.5642 20.0147H15.3243C14.8085 20.0147 14.3887 19.5948 14.3887 19.079V18.9471" stroke="#C5C5C5" stroke-width="0.697674" stroke-miterlimit="10" stroke-linecap="round" stroke-linejoin="round"/>
</g>
</svg>
